999
Inkscape export via "Better DXF Output" (bob@bobcookdev.com)
  0
SECTION
  2
HEADER
  9
$ACADVER
  1
AC1014
  9
$HANDSEED
  5
FFFF
  0
ENDSEC
  0
SECTION
  2
TABLES
  0
TABLE
  2
VPORT
  5
8
330
0
100
AcDbSymbolTable
 70
     4
  0
VPORT
  5
2E
330
8
100
AcDbSymbolTableRecord
100
AcDbViewportTableRecord
  2
*ACTIVE
 70
     0
 10
0.0
 20
0.0
 11
1.0
 21
1.0
 12
4.25
 22
5.5
 13
0.0
 23
0.0
 14
10.0
 24
10.0
 15
10.0
 25
10.0
 16
0.0
 26
0.0
 36
1.0
 17
0.0
 27
0.0
 37
0.0
 40
11
 41
1.24
 42
50.0
 43
0.0
 44
0.0
 50
0.0
 51
0.0
 71
     0
 72
   100
 73
     1
 74
     3
 75
     0
 76
     0
 77
     0
 78
     0
  0
ENDTAB
  0
TABLE
  2
LTYPE
  5
5
330
0
100
AcDbSymbolTable
 70
     1
  0
LTYPE
  5
14
330
5
100
AcDbSymbolTableRecord
100
AcDbLinetypeTableRecord
  2
BYBLOCK
 70
     0
  3

 72
    65
 73
     0
 40
0.0
  0
LTYPE
  5
15
330
5
100
AcDbSymbolTableRecord
100
AcDbLinetypeTableRecord
  2
BYLAYER
 70
     0
  3

 72
    65
 73
     0
 40
0.0
  0
LTYPE
  5
16
330
5
100
AcDbSymbolTableRecord
100
AcDbLinetypeTableRecord
  2
CONTINUOUS
 70
     0
  3
Solid line
 72
    65
 73
     0
 40
0.0
  0
ENDTAB
  0
TABLE
  2
LAYER
  5
2
330
0
100
AcDbSymbolTable
 70
1
  0
LAYER
  5
10
330
2
100
AcDbSymbolTableRecord
100
AcDbLayerTableRecord
  2
0
 70
     0
 62
     7
  6
CONTINUOUS
  0
ENDTAB
  0
TABLE
  2
STYLE
  5
3
330
0
100
AcDbSymbolTable
 70
     1
  0
STYLE
  5
11
330
3
100
AcDbSymbolTableRecord
100
AcDbTextStyleTableRecord
  2
STANDARD
 70
     0
 40
0.0
 41
1.0
 50
0.0
 71
     0
 42
2.5
  3
txt
  4

  0
ENDTAB
  0
TABLE
  2
VIEW
  5
6
330
0
100
AcDbSymbolTable
 70
     0
  0
ENDTAB
  0
TABLE
  2
UCS
  5
7
330
0
100
AcDbSymbolTable
 70
     0
  0
ENDTAB
  0
TABLE
  2
APPID
  5
9
330
0
100
AcDbSymbolTable
 70
     2
  0
APPID
  5
12
330
9
100
AcDbSymbolTableRecord
100
AcDbRegAppTableRecord
  2
ACAD
 70
     0
  0
ENDTAB
  0
TABLE
  2
DIMSTYLE
  5
A
330
0
100
AcDbSymbolTable
 70
     1
  0
DIMSTYLE
105
27
330
A
100
AcDbSymbolTableRecord
100
AcDbDimStyleTableRecord
  2
ISO-25
 70
     0
  3

  4

  5

  6

  7

 40
1.0
 41
2.5
 42
0.625
 43
3.75
 44
1.25
 45
0.0
 46
0.0
 47
0.0
 48
0.0
140
2.5
141
2.5
142
0.0
143
0.03937007874016
144
1.0
145
0.0
146
1.0
147
0.625
 71
     0
 72
     0
 73
     0
 74
     0
 75
     0
 76
     0
 77
     1
 78
     8
170
     0
171
     3
172
     1
173
     0
174
     0
175
     0
176
     0
177
     0
178
     0
270
     2
271
     2
272
     2
273
     2
274
     3
340
11
275
     0
280
     0
281
     0
282
     0
283
     0
284
     8
285
     0
286
     0
287
     3
288
     0
  0
ENDTAB
  0
TABLE
  2
BLOCK_RECORD
  5
1
330
0
100
AcDbSymbolTable
 70
     1
  0
BLOCK_RECORD
  5
1F
330
1
100
AcDbSymbolTableRecord
100
AcDbBlockTableRecord
  2
*MODEL_SPACE
  0
BLOCK_RECORD
  5
1B
330
1
100
AcDbSymbolTableRecord
100
AcDbBlockTableRecord
  2
*PAPER_SPACE
  0
ENDTAB
  0
ENDSEC
  0
SECTION
  2
BLOCKS
  0
BLOCK
  5
20
330
1F
100
AcDbEntity
  8
0
100
AcDbBlockBegin
  2
*MODEL_SPACE
 70
     0
 10
0.0
 20
0.0
 30
0.0
  3
*MODEL_SPACE
  1

  0
ENDBLK
  5
21
330
1F
100
AcDbEntity
  8
0
100
AcDbBlockEnd
  0
BLOCK
  5
1C
330
1B
100
AcDbEntity
 67
     1
  8
0
100
AcDbBlockBegin
  2
*PAPER_SPACE
  1

  0
ENDBLK
  5
1D
330
1B
100
AcDbEntity
 67
     1
  8
0
100
AcDbBlockEnd
  0
ENDSEC
  0
SECTION
  2
ENTITIES
0
LINE
8
Layer 1
62
4
5
100
100
AcDbEntity
100
AcDbLine
10
196.805132
20
16.815819
30
0.0
11
193.215088
21
18.080137
31
0.0
0
LINE
8
Layer 1
62
4
5
101
100
AcDbEntity
100
AcDbLine
10
193.215088
20
18.080137
30
0.0
11
190.041906
21
18.979137
31
0.0
0
LINE
8
Layer 1
62
4
5
102
100
AcDbEntity
100
AcDbLine
10
190.041906
20
18.979137
30
0.0
11
187.145892
21
19.515310
31
0.0
0
LINE
8
Layer 1
62
4
5
103
100
AcDbEntity
100
AcDbLine
10
187.145892
20
19.515310
30
0.0
11
184.387351
21
19.691148
31
0.0
0
LINE
8
Layer 1
62
4
5
104
100
AcDbEntity
100
AcDbLine
10
184.387351
20
19.691148
30
0.0
11
181.626588
21
19.509141
31
0.0
0
LINE
8
Layer 1
62
4
5
105
100
AcDbEntity
100
AcDbLine
10
181.626588
20
19.509141
30
0.0
11
178.723909
21
18.971780
31
0.0
0
LINE
8
Layer 1
62
4
5
106
100
AcDbEntity
100
AcDbLine
10
178.723909
20
18.971780
30
0.0
11
175.539619
21
18.081558
31
0.0
0
LINE
8
Layer 1
62
4
5
107
100
AcDbEntity
100
AcDbLine
10
175.539619
20
18.081558
30
0.0
11
171.934022
21
16.840965
31
0.0
0
LINE
8
Layer 1
62
4
5
108
100
AcDbEntity
100
AcDbLine
10
171.934022
20
16.840965
30
0.0
11
177.960316
21
31.640735
31
0.0
0
LINE
8
Layer 1
62
4
5
109
100
AcDbEntity
100
AcDbLine
10
177.960316
20
31.640735
30
0.0
11
184.120686
21
46.769782
31
0.0
0
LINE
8
Layer 1
62
4
5
10a
100
AcDbEntity
100
AcDbLine
10
184.120686
20
46.769782
30
0.0
11
196.805132
21
16.815819
31
0.0
0
LINE
8
Layer 1
62
4
5
10b
100
AcDbEntity
100
AcDbLine
10
207.030577
20
32.222273
30
0.0
11
218.836974
21
25.011346
31
0.0
0
LINE
8
Layer 1
62
4
5
10c
100
AcDbEntity
100
AcDbLine
10
218.836974
20
25.011346
30
0.0
11
217.978535
21
23.317616
31
0.0
0
LINE
8
Layer 1
62
4
5
10d
100
AcDbEntity
100
AcDbLine
10
217.978535
20
23.317616
30
0.0
11
216.897521
21
21.753414
31
0.0
0
LINE
8
Layer 1
62
4
5
10e
100
AcDbEntity
100
AcDbLine
10
216.897521
20
21.753414
30
0.0
11
215.619658
21
20.350590
31
0.0
0
LINE
8
Layer 1
62
4
5
10f
100
AcDbEntity
100
AcDbLine
10
215.619658
20
20.350590
30
0.0
11
214.170669
21
19.140997
31
0.0
0
LINE
8
Layer 1
62
4
5
110
100
AcDbEntity
100
AcDbLine
10
214.170669
20
19.140997
30
0.0
11
212.576281
21
18.156484
31
0.0
0
LINE
8
Layer 1
62
4
5
111
100
AcDbEntity
100
AcDbLine
10
212.576281
20
18.156484
30
0.0
11
210.862218
21
17.428904
31
0.0
0
LINE
8
Layer 1
62
4
5
112
100
AcDbEntity
100
AcDbLine
10
210.862218
20
17.428904
30
0.0
11
209.054206
21
16.990107
31
0.0
0
LINE
8
Layer 1
62
4
5
113
100
AcDbEntity
100
AcDbLine
10
209.054206
20
16.990107
30
0.0
11
207.177970
21
16.871944
31
0.0
0
LINE
8
Layer 1
62
4
5
114
100
AcDbEntity
100
AcDbLine
10
207.177970
20
16.871944
30
0.0
11
205.329104
21
17.051720
31
0.0
0
LINE
8
Layer 1
62
4
5
115
100
AcDbEntity
100
AcDbLine
10
205.329104
20
17.051720
30
0.0
11
203.556031
21
17.540230
31
0.0
0
LINE
8
Layer 1
62
4
5
116
100
AcDbEntity
100
AcDbLine
10
203.556031
20
17.540230
30
0.0
11
201.882162
21
18.306222
31
0.0
0
LINE
8
Layer 1
62
4
5
117
100
AcDbEntity
100
AcDbLine
10
201.882162
20
18.306222
30
0.0
11
200.330909
21
19.318446
31
0.0
0
LINE
8
Layer 1
62
4
5
118
100
AcDbEntity
100
AcDbLine
10
200.330909
20
19.318446
30
0.0
11
198.925687
21
20.545649
31
0.0
0
LINE
8
Layer 1
62
4
5
119
100
AcDbEntity
100
AcDbLine
10
198.925687
20
20.545649
30
0.0
11
197.689906
21
21.956579
31
0.0
0
LINE
8
Layer 1
62
4
5
11a
100
AcDbEntity
100
AcDbLine
10
197.689906
20
21.956579
30
0.0
11
196.646980
21
23.519986
31
0.0
0
LINE
8
Layer 1
62
4
5
11b
100
AcDbEntity
100
AcDbLine
10
196.646980
20
23.519986
30
0.0
11
195.820321
21
25.204618
31
0.0
0
LINE
8
Layer 1
62
4
5
11c
100
AcDbEntity
100
AcDbLine
10
195.820321
20
25.204618
30
0.0
11
194.972490
21
27.699973
31
0.0
0
LINE
8
Layer 1
62
4
5
11d
100
AcDbEntity
100
AcDbLine
10
194.972490
20
27.699973
30
0.0
11
194.532815
21
30.309364
31
0.0
0
LINE
8
Layer 1
62
4
5
11e
100
AcDbEntity
100
AcDbLine
10
194.532815
20
30.309364
30
0.0
11
194.495988
21
32.962380
31
0.0
0
LINE
8
Layer 1
62
4
5
11f
100
AcDbEntity
100
AcDbLine
10
194.495988
20
32.962380
30
0.0
11
194.856704
21
35.588610
31
0.0
0
LINE
8
Layer 1
62
4
5
120
100
AcDbEntity
100
AcDbLine
10
194.856704
20
35.588610
30
0.0
11
195.609656
21
38.117642
31
0.0
0
LINE
8
Layer 1
62
4
5
121
100
AcDbEntity
100
AcDbLine
10
195.609656
20
38.117642
30
0.0
11
196.749538
21
40.479067
31
0.0
0
LINE
8
Layer 1
62
4
5
122
100
AcDbEntity
100
AcDbLine
10
196.749538
20
40.479067
30
0.0
11
198.271045
21
42.602473
31
0.0
0
LINE
8
Layer 1
62
4
5
123
100
AcDbEntity
100
AcDbLine
10
198.271045
20
42.602473
30
0.0
11
200.168868
21
44.417448
31
0.0
0
LINE
8
Layer 1
62
4
5
124
100
AcDbEntity
100
AcDbLine
10
200.168868
20
44.417448
30
0.0
11
201.681089
21
45.448533
31
0.0
0
LINE
8
Layer 1
62
4
5
125
100
AcDbEntity
100
AcDbLine
10
201.681089
20
45.448533
30
0.0
11
203.332914
21
46.228177
31
0.0
0
LINE
8
Layer 1
62
4
5
126
100
AcDbEntity
100
AcDbLine
10
203.332914
20
46.228177
30
0.0
11
205.081413
21
46.746804
31
0.0
0
LINE
8
Layer 1
62
4
5
127
100
AcDbEntity
100
AcDbLine
10
205.081413
20
46.746804
30
0.0
11
206.883655
21
46.994838
31
0.0
0
LINE
8
Layer 1
62
4
5
128
100
AcDbEntity
100
AcDbLine
10
206.883655
20
46.994838
30
0.0
11
208.696709
21
46.962705
31
0.0
0
LINE
8
Layer 1
62
4
5
129
100
AcDbEntity
100
AcDbLine
10
208.696709
20
46.962705
30
0.0
11
210.477646
21
46.640828
31
0.0
0
LINE
8
Layer 1
62
4
5
12a
100
AcDbEntity
100
AcDbLine
10
210.477646
20
46.640828
30
0.0
11
212.183533
21
46.019632
31
0.0
0
LINE
8
Layer 1
62
4
5
12b
100
AcDbEntity
100
AcDbLine
10
212.183533
20
46.019632
30
0.0
11
213.771440
21
45.089541
31
0.0
0
LINE
8
Layer 1
62
4
5
12c
100
AcDbEntity
100
AcDbLine
10
213.771440
20
45.089541
30
0.0
11
215.090783
21
44.030774
31
0.0
0
LINE
8
Layer 1
62
4
5
12d
100
AcDbEntity
100
AcDbLine
10
215.090783
20
44.030774
30
0.0
11
216.261697
21
42.792891
31
0.0
0
LINE
8
Layer 1
62
4
5
12e
100
AcDbEntity
100
AcDbLine
10
216.261697
20
42.792891
30
0.0
11
217.285929
21
41.402719
31
0.0
0
LINE
8
Layer 1
62
4
5
12f
100
AcDbEntity
100
AcDbLine
10
217.285929
20
41.402719
30
0.0
11
218.165223
21
39.887082
31
0.0
0
LINE
8
Layer 1
62
4
5
130
100
AcDbEntity
100
AcDbLine
10
218.165223
20
39.887082
30
0.0
11
207.030577
21
32.222273
31
0.0
0
LINE
8
Layer 1
62
4
5
131
100
AcDbEntity
100
AcDbLine
10
207.030577
20
32.222273
30
0.0
11
207.030577
21
32.222273
31
0.0
0
LINE
8
Layer 1
62
4
5
132
100
AcDbEntity
100
AcDbLine
10
167.130397
20
46.417428
30
0.0
11
167.021499
21
32.332651
31
0.0
0
LINE
8
Layer 1
62
4
5
133
100
AcDbEntity
100
AcDbLine
10
167.021499
20
32.332651
30
0.0
11
174.964423
21
29.378591
31
0.0
0
LINE
8
Layer 1
62
4
5
134
100
AcDbEntity
100
AcDbLine
10
174.964423
20
29.378591
30
0.0
11
171.787874
21
20.854156
31
0.0
0
LINE
8
Layer 1
62
4
5
135
100
AcDbEntity
100
AcDbLine
10
171.787874
20
20.854156
30
0.0
11
166.946670
21
22.654652
31
0.0
0
LINE
8
Layer 1
62
4
5
136
100
AcDbEntity
100
AcDbLine
10
166.946670
20
22.654652
30
0.0
11
166.901763
21
16.845054
31
0.0
0
LINE
8
Layer 1
62
4
5
137
100
AcDbEntity
100
AcDbLine
10
166.901763
20
16.845054
30
0.0
11
157.807366
21
16.907772
31
0.0
0
LINE
8
Layer 1
62
4
5
138
100
AcDbEntity
100
AcDbLine
10
157.807366
20
16.907772
30
0.0
11
157.877868
21
26.027445
31
0.0
0
LINE
8
Layer 1
62
4
5
139
100
AcDbEntity
100
AcDbLine
10
157.877868
20
26.027445
30
0.0
11
153.343469
21
27.713841
31
0.0
0
LINE
8
Layer 1
62
4
5
13a
100
AcDbEntity
100
AcDbLine
10
153.343469
20
27.713841
30
0.0
11
153.260168
21
16.939133
31
0.0
0
LINE
8
Layer 1
62
4
5
13b
100
AcDbEntity
100
AcDbLine
10
153.260168
20
16.939133
30
0.0
11
144.165752
21
17.001854
31
0.0
0
LINE
8
Layer 1
62
4
5
13c
100
AcDbEntity
100
AcDbLine
10
144.165752
20
17.001854
30
0.0
11
144.274653
21
31.086628
31
0.0
0
LINE
8
Layer 1
62
4
5
13d
100
AcDbEntity
100
AcDbLine
10
144.274653
20
31.086628
30
0.0
11
136.331726
21
34.040691
31
0.0
0
LINE
8
Layer 1
62
4
5
13e
100
AcDbEntity
100
AcDbLine
10
136.331726
20
34.040691
30
0.0
11
139.508275
21
42.565125
31
0.0
0
LINE
8
Layer 1
62
4
5
13f
100
AcDbEntity
100
AcDbLine
10
139.508275
20
42.565125
30
0.0
11
144.349478
21
40.764629
31
0.0
0
LINE
8
Layer 1
62
4
5
140
100
AcDbEntity
100
AcDbLine
10
144.349478
20
40.764629
30
0.0
11
144.394386
21
46.574230
31
0.0
0
LINE
8
Layer 1
62
4
5
141
100
AcDbEntity
100
AcDbLine
10
144.394386
20
46.574230
30
0.0
11
153.488802
21
46.511509
31
0.0
0
LINE
8
Layer 1
62
4
5
142
100
AcDbEntity
100
AcDbLine
10
153.488802
20
46.511509
30
0.0
11
153.418280
21
37.391837
31
0.0
0
LINE
8
Layer 1
62
4
5
143
100
AcDbEntity
100
AcDbLine
10
153.418280
20
37.391837
30
0.0
11
157.952697
21
35.705440
31
0.0
0
LINE
8
Layer 1
62
4
5
144
100
AcDbEntity
100
AcDbLine
10
157.952697
20
35.705440
30
0.0
11
158.036000
21
46.480149
31
0.0
0
LINE
8
Layer 1
62
4
5
145
100
AcDbEntity
100
AcDbLine
10
158.036000
20
46.480149
30
0.0
11
167.130397
21
46.417428
31
0.0
0
LINE
8
Layer 1
62
4
5
146
100
AcDbEntity
100
AcDbLine
10
220.609843
20
46.905130
30
0.0
11
230.946147
21
46.834761
31
0.0
0
LINE
8
Layer 1
62
4
5
147
100
AcDbEntity
100
AcDbLine
10
230.946147
20
46.834761
30
0.0
11
230.981699
21
34.311059
31
0.0
0
LINE
8
Layer 1
62
4
5
148
100
AcDbEntity
100
AcDbLine
10
230.981699
20
34.311059
30
0.0
11
239.246878
21
44.020686
31
0.0
0
LINE
8
Layer 1
62
4
5
149
100
AcDbEntity
100
AcDbLine
10
239.246878
20
44.020686
30
0.0
11
239.246878
21
44.068833
31
0.0
0
LINE
8
Layer 1
62
4
5
14a
100
AcDbEntity
100
AcDbLine
10
239.246878
20
44.068833
30
0.0
11
247.423175
21
38.118463
31
0.0
0
LINE
8
Layer 1
62
4
5
14b
100
AcDbEntity
100
AcDbLine
10
247.423175
20
38.118463
30
0.0
11
239.660221
21
28.772539
31
0.0
0
LINE
8
Layer 1
62
4
5
14c
100
AcDbEntity
100
AcDbLine
10
239.660221
20
28.772539
30
0.0
11
239.730588
21
28.732539
31
0.0
0
LINE
8
Layer 1
62
4
5
14d
100
AcDbEntity
100
AcDbLine
10
239.730588
20
28.732539
30
0.0
11
250.480957
21
16.914760
31
0.0
0
LINE
8
Layer 1
62
4
5
14e
100
AcDbEntity
100
AcDbLine
10
250.480957
20
16.914760
30
0.0
11
237.190588
21
16.848833
31
0.0
0
LINE
8
Layer 1
62
4
5
14f
100
AcDbEntity
100
AcDbLine
10
237.190588
20
16.848833
30
0.0
11
233.451332
21
21.470318
31
0.0
0
LINE
8
Layer 1
62
4
5
150
100
AcDbEntity
100
AcDbLine
10
233.451332
20
21.470318
30
0.0
11
230.981699
21
18.330316
31
0.0
0
LINE
8
Layer 1
62
4
5
151
100
AcDbEntity
100
AcDbLine
10
230.981699
20
18.330316
30
0.0
11
230.911332
21
16.989575
31
0.0
0
LINE
8
Layer 1
62
4
5
152
100
AcDbEntity
100
AcDbLine
10
230.911332
20
16.989575
30
0.0
11
220.609843
21
16.989575
31
0.0
0
LINE
8
Layer 1
62
4
5
153
100
AcDbEntity
100
AcDbLine
10
220.609843
20
16.989575
30
0.0
11
220.609843
21
46.905130
31
0.0
0
LINE
8
Layer 1
62
4
5
154
100
AcDbEntity
100
AcDbLine
10
148.386094
20
2.035601
30
0.0
11
149.712260
21
1.763087
31
0.0
0
LINE
8
Layer 1
62
4
5
155
100
AcDbEntity
100
AcDbLine
10
149.712260
20
1.763087
30
0.0
11
150.948251
21
1.277618
31
0.0
0
LINE
8
Layer 1
62
4
5
156
100
AcDbEntity
100
AcDbLine
10
150.948251
20
1.277618
30
0.0
11
152.074983
21
0.599590
31
0.0
0
LINE
8
Layer 1
62
4
5
157
100
AcDbEntity
100
AcDbLine
10
152.074983
20
0.599590
30
0.0
11
153.073374
21
-0.250603
31
0.0
0
LINE
8
Layer 1
62
4
5
158
100
AcDbEntity
100
AcDbLine
10
153.073374
20
-0.250603
30
0.0
11
153.924342
21
-1.252566
31
0.0
0
LINE
8
Layer 1
62
4
5
159
100
AcDbEntity
100
AcDbLine
10
153.924342
20
-1.252566
30
0.0
11
154.608802
21
-2.385902
31
0.0
0
LINE
8
Layer 1
62
4
5
15a
100
AcDbEntity
100
AcDbLine
10
154.608802
20
-2.385902
30
0.0
11
155.107673
21
-3.630217
31
0.0
0
LINE
8
Layer 1
62
4
5
15b
100
AcDbEntity
100
AcDbLine
10
155.107673
20
-3.630217
30
0.0
11
155.401871
21
-4.965116
31
0.0
0
LINE
8
Layer 1
62
4
5
15c
100
AcDbEntity
100
AcDbLine
10
155.401871
20
-4.965116
30
0.0
11
155.505961
21
-6.561153
31
0.0
0
LINE
8
Layer 1
62
4
5
15d
100
AcDbEntity
100
AcDbLine
10
155.505961
20
-6.561153
30
0.0
11
155.386939
21
-8.121264
31
0.0
0
LINE
8
Layer 1
62
4
5
15e
100
AcDbEntity
100
AcDbLine
10
155.386939
20
-8.121264
30
0.0
11
155.047598
21
-9.613851
31
0.0
0
LINE
8
Layer 1
62
4
5
15f
100
AcDbEntity
100
AcDbLine
10
155.047598
20
-9.613851
30
0.0
11
154.490729
21
-11.007317
31
0.0
0
LINE
8
Layer 1
62
4
5
160
100
AcDbEntity
100
AcDbLine
10
154.490729
20
-11.007317
30
0.0
11
153.719126
21
-12.270064
31
0.0
0
LINE
8
Layer 1
62
4
5
161
100
AcDbEntity
100
AcDbLine
10
153.719126
20
-12.270064
30
0.0
11
152.735579
21
-13.370494
31
0.0
0
LINE
8
Layer 1
62
4
5
162
100
AcDbEntity
100
AcDbLine
10
152.735579
20
-13.370494
30
0.0
11
151.542882
21
-14.277010
31
0.0
0
LINE
8
Layer 1
62
4
5
163
100
AcDbEntity
100
AcDbLine
10
151.542882
20
-14.277010
30
0.0
11
150.143825
21
-14.958015
31
0.0
0
LINE
8
Layer 1
62
4
5
164
100
AcDbEntity
100
AcDbLine
10
150.143825
20
-14.958015
30
0.0
11
137.622712
21
-14.840898
31
0.0
0
LINE
8
Layer 1
62
4
5
165
100
AcDbEntity
100
AcDbLine
10
137.622712
20
-14.840898
30
0.0
11
137.534845
21
15.074663
31
0.0
0
LINE
8
Layer 1
62
4
5
166
100
AcDbEntity
100
AcDbLine
10
137.534845
20
15.074663
30
0.0
11
148.219753
21
15.188991
31
0.0
0
LINE
8
Layer 1
62
4
5
167
100
AcDbEntity
100
AcDbLine
10
148.219753
20
15.188991
30
0.0
11
148.213798
21
15.162575
31
0.0
0
LINE
8
Layer 1
62
4
5
168
100
AcDbEntity
100
AcDbLine
10
148.213798
20
15.162575
30
0.0
11
149.266074
21
14.873699
31
0.0
0
LINE
8
Layer 1
62
4
5
169
100
AcDbEntity
100
AcDbLine
10
149.266074
20
14.873699
30
0.0
11
150.222845
21
14.350331
31
0.0
0
LINE
8
Layer 1
62
4
5
16a
100
AcDbEntity
100
AcDbLine
10
150.222845
20
14.350331
30
0.0
11
151.065592
21
13.621093
31
0.0
0
LINE
8
Layer 1
62
4
5
16b
100
AcDbEntity
100
AcDbLine
10
151.065592
20
13.621093
30
0.0
11
151.775792
21
12.714605
31
0.0
0
LINE
8
Layer 1
62
4
5
16c
100
AcDbEntity
100
AcDbLine
10
151.775792
20
12.714605
30
0.0
11
152.334925
21
11.659490
31
0.0
0
LINE
8
Layer 1
62
4
5
16d
100
AcDbEntity
100
AcDbLine
10
152.334925
20
11.659490
30
0.0
11
152.724470
21
10.484368
31
0.0
0
LINE
8
Layer 1
62
4
5
16e
100
AcDbEntity
100
AcDbLine
10
152.724470
20
10.484368
30
0.0
11
152.925906
21
9.217860
31
0.0
0
LINE
8
Layer 1
62
4
5
16f
100
AcDbEntity
100
AcDbLine
10
152.925906
20
9.217860
30
0.0
11
152.920711
21
7.888588
31
0.0
0
LINE
8
Layer 1
62
4
5
170
100
AcDbEntity
100
AcDbLine
10
152.920711
20
7.888588
30
0.0
11
152.514622
21
5.836350
31
0.0
0
LINE
8
Layer 1
62
4
5
171
100
AcDbEntity
100
AcDbLine
10
152.514622
20
5.836350
30
0.0
11
152.144686
21
4.981580
31
0.0
0
LINE
8
Layer 1
62
4
5
172
100
AcDbEntity
100
AcDbLine
10
152.144686
20
4.981580
30
0.0
11
151.655755
21
4.228599
31
0.0
0
LINE
8
Layer 1
62
4
5
173
100
AcDbEntity
100
AcDbLine
10
151.655755
20
4.228599
30
0.0
11
151.042025
21
3.568071
31
0.0
0
LINE
8
Layer 1
62
4
5
174
100
AcDbEntity
100
AcDbLine
10
151.042025
20
3.568071
30
0.0
11
150.297697
21
2.990664
31
0.0
0
LINE
8
Layer 1
62
4
5
175
100
AcDbEntity
100
AcDbLine
10
150.297697
20
2.990664
30
0.0
11
148.394036
21
2.047878
31
0.0
0
LINE
8
Layer 1
62
4
5
176
100
AcDbEntity
100
AcDbLine
10
148.394036
20
2.047878
30
0.0
11
148.276848
21
2.074398
31
0.0
0
LINE
8
Layer 1
62
4
5
177
100
AcDbEntity
100
AcDbLine
10
148.276848
20
2.074398
30
0.0
11
148.372593
21
2.028830
31
0.0
0
LINE
8
Layer 1
62
4
5
178
100
AcDbEntity
100
AcDbLine
10
148.372593
20
2.028830
30
0.0
11
148.477076
21
1.989717
31
0.0
0
LINE
8
Layer 1
62
4
5
179
100
AcDbEntity
100
AcDbLine
10
148.477076
20
1.989717
30
0.0
11
148.386106
21
2.035601
31
0.0
0
LINE
8
Layer 1
62
4
5
17a
100
AcDbEntity
100
AcDbLine
10
148.386106
20
2.035601
30
0.0
11
148.386094
21
2.035601
31
0.0
0
LINE
8
Layer 1
62
4
5
17b
100
AcDbEntity
100
AcDbLine
10
184.758384
20
14.986886
30
0.0
11
186.202071
21
14.377222
31
0.0
0
LINE
8
Layer 1
62
4
5
17c
100
AcDbEntity
100
AcDbLine
10
186.202071
20
14.377222
30
0.0
11
187.497939
21
13.555745
31
0.0
0
LINE
8
Layer 1
62
4
5
17d
100
AcDbEntity
100
AcDbLine
10
187.497939
20
13.555745
30
0.0
11
188.628632
21
12.547767
31
0.0
0
LINE
8
Layer 1
62
4
5
17e
100
AcDbEntity
100
AcDbLine
10
188.628632
20
12.547767
30
0.0
11
189.576799
21
11.378597
31
0.0
0
LINE
8
Layer 1
62
4
5
17f
100
AcDbEntity
100
AcDbLine
10
189.576799
20
11.378597
30
0.0
11
190.325086
21
10.073543
31
0.0
0
LINE
8
Layer 1
62
4
5
180
100
AcDbEntity
100
AcDbLine
10
190.325086
20
10.073543
30
0.0
11
190.856138
21
8.657917
31
0.0
0
LINE
8
Layer 1
62
4
5
181
100
AcDbEntity
100
AcDbLine
10
190.856138
20
8.657917
30
0.0
11
191.152604
21
7.157026
31
0.0
0
LINE
8
Layer 1
62
4
5
182
100
AcDbEntity
100
AcDbLine
10
191.152604
20
7.157026
30
0.0
11
191.197128
21
5.596182
31
0.0
0
LINE
8
Layer 1
62
4
5
183
100
AcDbEntity
100
AcDbLine
10
191.197128
20
5.596182
30
0.0
11
191.022882
21
4.128772
31
0.0
0
LINE
8
Layer 1
62
4
5
184
100
AcDbEntity
100
AcDbLine
10
191.022882
20
4.128772
30
0.0
11
190.685930
21
2.868170
31
0.0
0
LINE
8
Layer 1
62
4
5
185
100
AcDbEntity
100
AcDbLine
10
190.685930
20
2.868170
30
0.0
11
190.203244
21
1.779663
31
0.0
0
LINE
8
Layer 1
62
4
5
186
100
AcDbEntity
100
AcDbLine
10
190.203244
20
1.779663
30
0.0
11
189.591798
21
0.828537
31
0.0
0
LINE
8
Layer 1
62
4
5
187
100
AcDbEntity
100
AcDbLine
10
189.591798
20
0.828537
30
0.0
11
188.050511
21
-0.800420
31
0.0
0
LINE
8
Layer 1
62
4
5
188
100
AcDbEntity
100
AcDbLine
10
188.050511
20
-0.800420
30
0.0
11
186.197850
21
-2.296403
31
0.0
0
LINE
8
Layer 1
62
4
5
189
100
AcDbEntity
100
AcDbLine
10
186.197850
20
-2.296403
30
0.0
11
194.004531
21
-14.799158
31
0.0
0
LINE
8
Layer 1
62
4
5
18a
100
AcDbEntity
100
AcDbLine
10
194.004531
20
-14.799158
30
0.0
11
191.603782
21
-14.808048
31
0.0
0
LINE
8
Layer 1
62
4
5
18b
100
AcDbEntity
100
AcDbLine
10
191.603782
20
-14.808048
30
0.0
11
184.108237
21
-14.842860
31
0.0
0
LINE
8
Layer 1
62
4
5
18c
100
AcDbEntity
100
AcDbLine
10
184.108237
20
-14.842860
30
0.0
11
181.931194
21
-10.433231
31
0.0
0
LINE
8
Layer 1
62
4
5
18d
100
AcDbEntity
100
AcDbLine
10
181.931194
20
-10.433231
30
0.0
11
181.931194
21
-14.984341
31
0.0
0
LINE
8
Layer 1
62
4
5
18e
100
AcDbEntity
100
AcDbLine
10
181.931194
20
-14.984341
30
0.0
11
173.991197
21
-14.948786
31
0.0
0
LINE
8
Layer 1
62
4
5
18f
100
AcDbEntity
100
AcDbLine
10
173.991197
20
-14.948786
30
0.0
11
173.916368
21
15.002324
31
0.0
0
LINE
8
Layer 1
62
4
5
190
100
AcDbEntity
100
AcDbLine
10
173.916368
20
15.002324
30
0.0
11
184.792194
21
14.994591
31
0.0
0
LINE
8
Layer 1
62
4
5
191
100
AcDbEntity
100
AcDbLine
10
184.792194
20
14.994591
30
0.0
11
184.758384
21
14.986886
31
0.0
0
LINE
8
Layer 1
62
4
5
192
100
AcDbEntity
100
AcDbLine
10
242.006097
20
15.102188
30
0.0
11
250.562389
21
15.067370
31
0.0
0
LINE
8
Layer 1
62
4
5
193
100
AcDbEntity
100
AcDbLine
10
250.562389
20
15.067370
30
0.0
11
250.686085
21
-15.060035
31
0.0
0
LINE
8
Layer 1
62
4
5
194
100
AcDbEntity
100
AcDbLine
10
250.686085
20
-15.060035
30
0.0
11
243.024606
21
-14.999290
31
0.0
0
LINE
8
Layer 1
62
4
5
195
100
AcDbEntity
100
AcDbLine
10
243.024606
20
-14.999290
30
0.0
11
237.834241
21
-7.034109
31
0.0
0
LINE
8
Layer 1
62
4
5
196
100
AcDbEntity
100
AcDbLine
10
237.834241
20
-7.034109
30
0.0
11
237.723121
21
-14.931887
31
0.0
0
LINE
8
Layer 1
62
4
5
197
100
AcDbEntity
100
AcDbLine
10
237.723121
20
-14.931887
30
0.0
11
228.692010
21
-14.848180
31
0.0
0
LINE
8
Layer 1
62
4
5
198
100
AcDbEntity
100
AcDbLine
10
228.692010
20
-14.848180
30
0.0
11
228.506836
21
15.208854
31
0.0
0
LINE
8
Layer 1
62
4
5
199
100
AcDbEntity
100
AcDbLine
10
228.506836
20
15.208854
30
0.0
11
235.940905
21
15.137742
31
0.0
0
LINE
8
Layer 1
62
4
5
19a
100
AcDbEntity
100
AcDbLine
10
235.940905
20
15.137742
30
0.0
11
242.006097
21
7.148855
31
0.0
0
LINE
8
Layer 1
62
4
5
19b
100
AcDbEntity
100
AcDbLine
10
242.006097
20
7.148855
30
0.0
11
242.006097
21
15.102188
31
0.0
0
LINE
8
Layer 1
62
4
5
19c
100
AcDbEntity
100
AcDbLine
10
211.528319
20
15.153744
30
0.0
11
211.511272
21
-14.853666
31
0.0
0
LINE
8
Layer 1
62
4
5
19d
100
AcDbEntity
100
AcDbLine
10
211.511272
20
-14.853666
30
0.0
11
226.139406
21
-14.883294
31
0.0
0
LINE
8
Layer 1
62
4
5
19e
100
AcDbEntity
100
AcDbLine
10
226.139406
20
-14.883294
30
0.0
11
226.174235
21
-5.809962
31
0.0
0
LINE
8
Layer 1
62
4
5
19f
100
AcDbEntity
100
AcDbLine
10
226.174235
20
-5.809962
30
0.0
11
220.833493
21
-5.789219
31
0.0
0
LINE
8
Layer 1
62
4
5
1a0
100
AcDbEntity
100
AcDbLine
10
220.833493
20
-5.789219
30
0.0
11
220.833493
21
-2.368479
31
0.0
0
LINE
8
Layer 1
62
4
5
1a1
100
AcDbEntity
100
AcDbLine
10
220.833493
20
-2.368479
30
0.0
11
226.191270
21
-2.429225
31
0.0
0
LINE
8
Layer 1
62
4
5
1a2
100
AcDbEntity
100
AcDbLine
10
226.191270
20
-2.429225
30
0.0
11
226.191270
21
2.670779
31
0.0
0
LINE
8
Layer 1
62
4
5
1a3
100
AcDbEntity
100
AcDbLine
10
226.191270
20
2.670779
30
0.0
11
220.721631
21
2.688559
31
0.0
0
LINE
8
Layer 1
62
4
5
1a4
100
AcDbEntity
100
AcDbLine
10
220.721631
20
2.688559
30
0.0
11
220.721631
21
6.109301
31
0.0
0
LINE
8
Layer 1
62
4
5
1a5
100
AcDbEntity
100
AcDbLine
10
220.721631
20
6.109301
30
0.0
11
226.156458
21
6.080410
31
0.0
0
LINE
8
Layer 1
62
4
5
1a6
100
AcDbEntity
100
AcDbLine
10
226.156458
20
6.080410
30
0.0
11
226.156458
21
15.183372
31
0.0
0
LINE
8
Layer 1
62
4
5
1a7
100
AcDbEntity
100
AcDbLine
10
226.156458
20
15.183372
30
0.0
11
211.528319
21
15.153744
31
0.0
0
LINE
8
Layer 1
62
4
5
1a8
100
AcDbEntity
100
AcDbLine
10
157.060172
20
15.078109
30
0.0
11
157.043126
21
-14.929299
31
0.0
0
LINE
8
Layer 1
62
4
5
1a9
100
AcDbEntity
100
AcDbLine
10
157.043126
20
-14.929299
30
0.0
11
171.671259
21
-14.958926
31
0.0
0
LINE
8
Layer 1
62
4
5
1aa
100
AcDbEntity
100
AcDbLine
10
171.671259
20
-14.958926
30
0.0
11
171.706088
21
-5.885595
31
0.0
0
LINE
8
Layer 1
62
4
5
1ab
100
AcDbEntity
100
AcDbLine
10
171.706088
20
-5.885595
30
0.0
11
166.365346
21
-5.864852
31
0.0
0
LINE
8
Layer 1
62
4
5
1ac
100
AcDbEntity
100
AcDbLine
10
166.365346
20
-5.864852
30
0.0
11
166.365346
21
-2.444104
31
0.0
0
LINE
8
Layer 1
62
4
5
1ad
100
AcDbEntity
100
AcDbLine
10
166.365346
20
-2.444104
30
0.0
11
171.723123
21
-2.504849
31
0.0
0
LINE
8
Layer 1
62
4
5
1ae
100
AcDbEntity
100
AcDbLine
10
171.723123
20
-2.504849
30
0.0
11
171.723123
21
2.595152
31
0.0
0
LINE
8
Layer 1
62
4
5
1af
100
AcDbEntity
100
AcDbLine
10
171.723123
20
2.595152
30
0.0
11
166.253485
21
2.612932
31
0.0
0
LINE
8
Layer 1
62
4
5
1b0
100
AcDbEntity
100
AcDbLine
10
166.253485
20
2.612932
30
0.0
11
166.253485
21
6.033671
31
0.0
0
LINE
8
Layer 1
62
4
5
1b1
100
AcDbEntity
100
AcDbLine
10
166.253485
20
6.033671
30
0.0
11
171.688311
21
6.004783
31
0.0
0
LINE
8
Layer 1
62
4
5
1b2
100
AcDbEntity
100
AcDbLine
10
171.688311
20
6.004783
30
0.0
11
171.688311
21
15.107748
31
0.0
0
LINE
8
Layer 1
62
4
5
1b3
100
AcDbEntity
100
AcDbLine
10
171.688311
20
15.107748
30
0.0
11
157.060172
21
15.078109
31
0.0
0
LINE
8
Layer 1
62
4
5
1b4
100
AcDbEntity
100
AcDbLine
10
208.998831
20
-14.932970
30
0.0
11
209.113673
21
2.467031
31
0.0
0
LINE
8
Layer 1
62
4
5
1b5
100
AcDbEntity
100
AcDbLine
10
209.113673
20
2.467031
30
0.0
11
203.344534
21
2.467031
31
0.0
0
LINE
8
Layer 1
62
4
5
1b6
100
AcDbEntity
100
AcDbLine
10
203.344534
20
2.467031
30
0.0
11
203.344534
21
-2.847041
31
0.0
0
LINE
8
Layer 1
62
4
5
1b7
100
AcDbEntity
100
AcDbLine
10
203.344534
20
-2.847041
30
0.0
11
201.773773
21
-2.899523
31
0.0
0
LINE
8
Layer 1
62
4
5
1b8
100
AcDbEntity
100
AcDbLine
10
201.773773
20
-2.899523
30
0.0
11
201.353353
21
-2.857426
31
0.0
0
LINE
8
Layer 1
62
4
5
1b9
100
AcDbEntity
100
AcDbLine
10
201.353353
20
-2.857426
30
0.0
11
200.961548
21
-2.515675
31
0.0
0
LINE
8
Layer 1
62
4
5
1ba
100
AcDbEntity
100
AcDbLine
10
200.961548
20
-2.515675
30
0.0
11
200.616546
21
-1.899855
31
0.0
0
LINE
8
Layer 1
62
4
5
1bb
100
AcDbEntity
100
AcDbLine
10
200.616546
20
-1.899855
30
0.0
11
200.336539
21
-1.035552
31
0.0
0
LINE
8
Layer 1
62
4
5
1bc
100
AcDbEntity
100
AcDbLine
10
200.336539
20
-1.035552
30
0.0
11
200.059759
21
1.137567
31
0.0
0
LINE
8
Layer 1
62
4
5
1bd
100
AcDbEntity
100
AcDbLine
10
200.059759
20
1.137567
30
0.0
11
200.204801
21
3.412109
31
0.0
0
LINE
8
Layer 1
62
4
5
1be
100
AcDbEntity
100
AcDbLine
10
200.204801
20
3.412109
30
0.0
11
200.735292
21
5.173979
31
0.0
0
LINE
8
Layer 1
62
4
5
1bf
100
AcDbEntity
100
AcDbLine
10
200.735292
20
5.173979
30
0.0
11
201.104771
21
5.708076
31
0.0
0
LINE
8
Layer 1
62
4
5
1c0
100
AcDbEntity
100
AcDbLine
10
201.104771
20
5.708076
30
0.0
11
201.523233
21
5.969988
31
0.0
0
LINE
8
Layer 1
62
4
5
1c1
100
AcDbEntity
100
AcDbLine
10
201.523233
20
5.969988
30
0.0
11
209.112843
21
5.957401
31
0.0
0
LINE
8
Layer 1
62
4
5
1c2
100
AcDbEntity
100
AcDbLine
10
209.112843
20
5.957401
30
0.0
11
209.112843
21
15.229256
31
0.0
0
LINE
8
Layer 1
62
4
5
1c3
100
AcDbEntity
100
AcDbLine
10
209.112843
20
15.229256
30
0.0
11
198.990272
21
15.261683
31
0.0
0
LINE
8
Layer 1
62
4
5
1c4
100
AcDbEntity
100
AcDbLine
10
198.990272
20
15.261683
30
0.0
11
197.781241
21
15.054382
31
0.0
0
LINE
8
Layer 1
62
4
5
1c5
100
AcDbEntity
100
AcDbLine
10
197.781241
20
15.054382
30
0.0
11
196.642245
21
14.287324
31
0.0
0
LINE
8
Layer 1
62
4
5
1c6
100
AcDbEntity
100
AcDbLine
10
196.642245
20
14.287324
30
0.0
11
195.598364
21
13.015656
31
0.0
0
LINE
8
Layer 1
62
4
5
1c7
100
AcDbEntity
100
AcDbLine
10
195.598364
20
13.015656
30
0.0
11
194.674680
21
11.294523
31
0.0
0
LINE
8
Layer 1
62
4
5
1c8
100
AcDbEntity
100
AcDbLine
10
194.674680
20
11.294523
30
0.0
11
193.896273
21
9.179069
31
0.0
0
LINE
8
Layer 1
62
4
5
1c9
100
AcDbEntity
100
AcDbLine
10
193.896273
20
9.179069
30
0.0
11
193.288223
21
6.724442
31
0.0
0
LINE
8
Layer 1
62
4
5
1ca
100
AcDbEntity
100
AcDbLine
10
193.288223
20
6.724442
30
0.0
11
192.875613
21
3.985784
31
0.0
0
LINE
8
Layer 1
62
4
5
1cb
100
AcDbEntity
100
AcDbLine
10
192.875613
20
3.985784
30
0.0
11
192.683522
21
1.018244
31
0.0
0
LINE
8
Layer 1
62
4
5
1cc
100
AcDbEntity
100
AcDbLine
10
192.683522
20
1.018244
30
0.0
11
192.732555
21
-1.983840
31
0.0
0
LINE
8
Layer 1
62
4
5
1cd
100
AcDbEntity
100
AcDbLine
10
192.732555
20
-1.983840
30
0.0
11
193.012171
21
-4.821965
31
0.0
0
LINE
8
Layer 1
62
4
5
1ce
100
AcDbEntity
100
AcDbLine
10
193.012171
20
-4.821965
30
0.0
11
193.500727
21
-7.434743
31
0.0
0
LINE
8
Layer 1
62
4
5
1cf
100
AcDbEntity
100
AcDbLine
10
193.500727
20
-7.434743
30
0.0
11
194.176583
21
-9.760791
31
0.0
0
LINE
8
Layer 1
62
4
5
1d0
100
AcDbEntity
100
AcDbLine
10
194.176583
20
-9.760791
30
0.0
11
195.018097
21
-11.738722
31
0.0
0
LINE
8
Layer 1
62
4
5
1d1
100
AcDbEntity
100
AcDbLine
10
195.018097
20
-11.738722
30
0.0
11
196.003629
21
-13.307149
31
0.0
0
LINE
8
Layer 1
62
4
5
1d2
100
AcDbEntity
100
AcDbLine
10
196.003629
20
-13.307149
30
0.0
11
197.111537
21
-14.404688
31
0.0
0
LINE
8
Layer 1
62
4
5
1d3
100
AcDbEntity
100
AcDbLine
10
197.111537
20
-14.404688
30
0.0
11
198.320180
21
-14.969953
31
0.0
0
LINE
8
Layer 1
62
4
5
1d4
100
AcDbEntity
100
AcDbLine
10
198.320180
20
-14.969953
30
0.0
11
198.236530
21
-14.925537
31
0.0
0
LINE
8
Layer 1
62
4
5
1d5
100
AcDbEntity
100
AcDbLine
10
198.236530
20
-14.925537
30
0.0
11
208.998831
21
-14.932970
31
0.0
  0
ENDSEC
  0
SECTION
  2
OBJECTS
  0
DICTIONARY
  5
C
330
0
100
AcDbDictionary
  3
ACAD_GROUP
350
D
  3
ACAD_MLINESTYLE
350
17
  0
DICTIONARY
  5
D
330
C
100
AcDbDictionary
  0
DICTIONARY
  5
1A
330
C
100
AcDbDictionary
  0
DICTIONARY
  5
17
330
C
100
AcDbDictionary
  3
STANDARD
350
18
  0
DICTIONARY
  5
19
330
C
100
AcDbDictionary
  0
ENDSEC
  0
EOF
