<?xml version="1.0" encoding="UTF-8" standalone="no"?>
<!-- Created with Inkscape (http://www.inkscape.org/) -->

<svg
   xmlns:dc="http://purl.org/dc/elements/1.1/"
   xmlns:cc="http://creativecommons.org/ns#"
   xmlns:rdf="http://www.w3.org/1999/02/22-rdf-syntax-ns#"
   xmlns:svg="http://www.w3.org/2000/svg"
   xmlns="http://www.w3.org/2000/svg"
   xmlns:sodipodi="http://sodipodi.sourceforge.net/DTD/sodipodi-0.dtd"
   xmlns:inkscape="http://www.inkscape.org/namespaces/inkscape"
   width="1052.3622"
   height="744.09448"
   id="svg2"
   version="1.1"
   inkscape:version="0.48.2 r9819"
   sodipodi:docname="HackBergenLogo-wo-back.dxf">
  <defs
     id="defs4">
    <inkscape:perspective
       sodipodi:type="inkscape:persp3d"
       inkscape:vp_x="0 : 372.04724 : 1"
       inkscape:vp_y="0 : 1000 : 0"
       inkscape:vp_z="1052.3622 : 372.04724 : 1"
       inkscape:persp3d-origin="526.18109 : 248.03149 : 1"
       id="perspective2916" />
  </defs>
  <sodipodi:namedview
     id="base"
     pagecolor="#ffffff"
     bordercolor="#666666"
     borderopacity="1.0"
     inkscape:pageopacity="0.0"
     inkscape:pageshadow="2"
     inkscape:zoom="1.5119048"
     inkscape:cx="526.18109"
     inkscape:cy="389.86966"
     inkscape:document-units="px"
     inkscape:current-layer="g5498"
     showgrid="false"
     inkscape:window-width="1912"
     inkscape:window-height="1122"
     inkscape:window-x="205"
     inkscape:window-y="11"
     inkscape:window-maximized="0"
     showguides="false"
     inkscape:snap-global="false">
    <sodipodi:guide
       position="0,0"
       orientation="0,744.09448"
       id="guide3762" />
    <sodipodi:guide
       position="1054,0"
       orientation="-1052.3622,0"
       id="guide3764" />
    <sodipodi:guide
       position="767,744"
       orientation="0,-744.09448"
       id="guide3766" />
    <sodipodi:guide
       position="0,1052.3622"
       orientation="1052.3622,0"
       id="guide3768" />
    <inkscape:grid
       type="xygrid"
       id="grid5266" />
  </sodipodi:namedview>
  <metadata
     id="metadata7">
    <rdf:RDF>
      <cc:Work
         rdf:about="">
        <dc:format>image/svg+xml</dc:format>
        <dc:type
           rdf:resource="http://purl.org/dc/dcmitype/StillImage" />
        <dc:title></dc:title>
      </cc:Work>
    </rdf:RDF>
  </metadata>
  <g
     inkscape:label="Layer 1"
     inkscape:groupmode="layer"
     id="layer1"
     transform="translate(0,-308.2677)">
    <g
       style="fill:none;stroke:none"
       id="g3617"
       transform="translate(-149.51395,-17.809574)">
      <g
         id="g5498"
         transform="matrix(2.1564115,0,0,2.1564115,-794.01227,-798.93298)">
        <path
           sodipodi:nodetypes="ccccc"
           style="fill:#0000ff;fill-opacity:1;stroke:#000000;stroke-width:2;stroke-linecap:butt;stroke-linejoin:round"
           inkscape:connector-curvature="0"
           d="m 697.34102,684.51087 c -36.33109,-13.68007 -51.62695,-13.45869 -88.12598,-0.0891 l 21.35301,-52.44013 21.82808,-53.60686 z"
           id="path3533" />
        <path
           sodipodi:nodetypes="cccccccc"
           inkscape:connector-curvature="0"
           d="m 733.57291,629.92107 c 13.80653,8.49612 27.8201,17.02332 41.83369,25.55053 -6.97867,16.51537 -23.34192,29.33903 -41.31143,28.8404 -17.75393,-0.14165 -33.52816,-13.13316 -40.24364,-29.52522 -9.956,-22.81764 -4.28512,-52.6065 15.40824,-68.07696 13.49393,-10.90028 33.88684,-12.6592 48.19809,-2.38143 6.58648,4.5367 11.754,11.01929 15.56852,18.43391 -12.94411,9.20479 -26.09527,18.19732 -39.45347,27.15877 z"
           style="fill:#0000ff;fill-opacity:1;stroke:#000000;stroke-width:2.02433538;stroke-linecap:butt;stroke-linejoin:round"
           id="path3541" />
        <path
           style="fill:#0000ff;fill-opacity:1;stroke:#000000;stroke-width:2;stroke-linecap:butt;stroke-linejoin:round"
           inkscape:connector-curvature="0"
           d="m 592.19432,579.62328 -0.38586,49.90669 28.14422,10.46714 -11.25549,30.20469 -17.15387,-6.37971 -0.15912,20.58519 -32.22424,-0.22223 0.24981,-32.3138 -16.06677,-5.97542 -0.29516,38.1781 -32.22431,-0.22224 0.38587,-49.90668 -28.14423,-10.46715 11.25549,-30.20469 17.15387,6.37971 0.15912,-20.5852 32.22431,0.22224 -0.24988,32.3138 16.06683,5.97542 0.29517,-38.1781 z"
           id="path3545" />
        <path
           style="fill:#0000ff;fill-opacity:1;stroke:#000000;stroke-width:2;stroke-linecap:butt;stroke-linejoin:round"
           inkscape:connector-curvature="0"
           d="m 781.68842,577.8952 36.6247,0.24934 0.12597,44.37532 29.28607,-34.40419 0,-0.1706 28.97113,21.08399 -27.50653,33.11548 0.24933,0.14173 38.09186,41.87402 -47.09186,0.2336 -13.24933,-16.37534 -8.75067,11.12599 -0.24933,4.75066 -36.50134,0 z"
           id="path3549" />
        <path
           sodipodi:nodetypes="cscccccsccc"
           style="fill:#0000ff;fill-opacity:1;stroke:#000000;stroke-width:2;stroke-linecap:butt;stroke-linejoin:round"
           inkscape:connector-curvature="0"
           d="m 525.7775,736.88172 c 12.89662,1.50461 23.10629,11.82876 24.85905,24.80569 2.04639,15.15088 -4.44531,30.13815 -18.63087,35.40791 l -44.36615,-0.41498 -0.31134,-106.00002 37.85991,-0.4051 -0.0211,0.0936 c 10.33563,1.53156 17.76166,13.00754 16.67804,25.77397 -0.92207,10.86317 -5.68381,16.82093 -16.0394,20.69543 -1.3782,-0.41927 1.18495,0.58475 -0.0281,0.0435 z"
           id="path3553" />
        <path
           sodipodi:nodetypes="cscccccccccc"
           style="fill:#0000ff;fill-opacity:1;stroke:#000000;stroke-width:2;stroke-linecap:butt;stroke-linejoin:round"
           inkscape:connector-curvature="0"
           d="m 654.65569,690.99134 c 14.28485,4.68021 23.63867,18.32248 22.81445,33.27415 -0.82428,14.95166 -8.43954,20.775 -17.71398,27.96585 l 27.66147,44.3011 -8.50659,0.0315 -26.55902,0.12335 -7.71393,-15.62467 0,16.12598 -28.13385,-0.12598 -0.26514,-106.12598 38.53639,0.0274 z"
           id="path3565" />
        <path
           style="fill:#0000ff;fill-opacity:1;stroke:#000000;stroke-width:2;stroke-linecap:butt;stroke-linejoin:round"
           inkscape:connector-curvature="0"
           d="m 857.50192,690.58279 30.31757,0.12337 0.43829,106.75065 -27.14697,-0.21524 -18.39106,-28.22308 -0.39373,27.98425 -32,-0.2966 -0.65613,-106.5013 26.34119,0.25197 21.49084,28.30708 z"
           id="path3573" />
        <path
           style="fill:#0000ff;fill-opacity:1;stroke:#000000;stroke-width:2;stroke-linecap:butt;stroke-linejoin:round"
           inkscape:connector-curvature="0"
           d="m 749.50979,690.40011 -0.0604,106.32547 51.83197,0.10498 0.12341,-32.1496 -18.92389,-0.0735 0,-12.12073 18.98425,0.21524 0,-18.07088 -19.38061,-0.063 0,-12.12074 19.25726,0.10237 0,-32.25459 z"
           id="path3577" />
        <path
           style="fill:#0000ff;fill-opacity:1;stroke:#000000;stroke-width:2;stroke-linecap:butt;stroke-linejoin:round"
           inkscape:connector-curvature="0"
           d="m 556.51242,690.66811 -0.0604,106.32546 51.83197,0.10498 0.12341,-32.1496 -18.92389,-0.0735 0,-12.12076 18.98425,0.21524 0,-18.07087 -19.38061,-0.063 0,-12.12073 19.25726,0.10236 0,-32.2546 z"
           id="path3581" />
        <path
           sodipodi:nodetypes="cccccssccccsccc"
           style="fill:#0000ff;fill-opacity:1;stroke:#000000;stroke-width:2;stroke-linecap:butt;stroke-linejoin:round"
           inkscape:connector-curvature="0"
           d="m 740.54704,797.00658 0.40692,-61.65355 -20.44183,0 0,18.82939 -5.56569,0.18596 c -2.02518,0.54925 -3.95187,-1.97462 -5.09256,-6.60462 -1.14068,-4.63001 -1.31897,-10.65026 -0.46679,-15.75943 0.85217,-5.10916 2.60314,-8.51731 4.67161,-9.06335 l 26.89232,0.0446 0,-32.85303 -35.86738,-0.1149 c -11.67579,-0.85945 -21.65254,21.52147 -22.34675,50.46888 -0.69422,28.94742 8.14441,54.01803 19.97241,56.65109 l -0.2964,-0.15738 z"
           id="path3607" />
      </g>
    </g>
  </g>
</svg>
